<svg xmlns="http://www.w3.org/2000/svg" width="30" height="30" viewBox="0 0 30 30">
    <g fill="none" fill-rule="evenodd" opacity=".797">
        <path fill="#125F98" d="M9.795 15.139c0-2.85 2.327-5.169 5.188-5.169 2.86 0 5.188 2.319 5.188 5.169 0 2.85-2.328 5.169-5.188 5.169-2.861 0-5.188-2.32-5.188-5.169z"/>
        <path fill="#44A643" d="M14.903 21.622a6.637 6.637 0 0 1-4.204-1.505 6.584 6.584 0 0 1-2.066-3.001l-5.72-9.874A14.203 14.203 0 0 0 .862 17.834 14.248 14.248 0 0 0 6.97 26.97a14.333 14.333 0 0 0 5.48 2.204l4.718-7.949a6.62 6.62 0 0 1-2.265.396z"/>
        <path fill="#D11F24" d="M8.479 2.159A14.516 14.516 0 0 0 3.68 5.982l4.83 8.335a6.467 6.467 0 0 1 4.486-5.342 6.518 6.518 0 0 1 1.856-.297h13.1C24.383 1.52 15.663-1.4 8.48 2.158z"/>
        <path fill="#F4CB08" d="M24.679 25.588a14.274 14.274 0 0 0 4.588-9.456 14.387 14.387 0 0 0-.895-6.162h-9.447a6.587 6.587 0 0 1 2.513 5.199 6.608 6.608 0 0 1-1.421 4.051l-6.022 10.145a14.372 14.372 0 0 0 10.684-3.778z"/>
    </g>
</svg>
