<svg xmlns="http://www.w3.org/2000/svg" width="24" height="24" viewBox="0 0 24 24">
    <g fill="none" fill-rule="evenodd">
        <rect width="24" height="24" fill="#04B589" rx="12"/>
        <g transform="translate(4 4)">
            <path fill="#FFF" fill-rule="nonzero" d="M8 0a8 8 0 1 0 0 16A8 8 0 0 0 8 0zM1.474 4.657c.076.307-.077.858-.194 1.65-.138.924.599.724.574 1.597-.025.874.649 1.236.561 1.323-.087.088-.436.212.088 1.348.524 1.136.973 1.473 1.036 2.084.062.612.736 1.51.736 1.51l.037.168A7.338 7.338 0 0 1 .664 8c0-1.204.294-2.34.81-3.343zm3.625 9.85c-.038-.163.037-1.037 1.085-1.386 1.049-.35.874-.811 1.186-1.26.312-.45.374-.786-.225-.924-.599-.137-1.223-.237-1.76-1.086-.536-.848-1.285-.873-1.684-1.135-.4-.263-.724-.212-1.21-.275-.487-.062-.325-1.422-.3-1.722.025-.3-.3.1-.537-.108-.237-.207.225-1.178.686-1.14.462.037.35.262.437.774.087.511.25.387.287.224.037-.162.063-.848.225-1.06.162-.212.2-.786.724-.761.524.025.511-.475.898-.312.387.162.662.037.412-.175-.25-.212-.112-.424.312-.287.425.138.45-.611.375-.998-.075-.387-.387-.5-.774-.263-.387.238-.674.138-.474-.262.2-.399.986-.062 1.46.138s.599-.524.337-.874c-.262-.35-.275-.187-1.023-.137-.299.02-.268-.14-.123-.34A7.295 7.295 0 0 1 8 .664c.922 0 1.804.172 2.617.484.103.143.144.256.073.304-.3.2-.561.021-.474.578.087.557.5 1.22.824 1 .324-.218.886.057.399.356-.487.3-.624.275-.849.474-.225.2-.125.1.1.35.225.25.2.3-.112.424-.312.125-.5.4-.2.712.3.312.5.574.836 0 .337-.575.4-1.074.687-.924.287.15.611.612.823.35.212-.263.175-.437.462-.238.287.2 1.348.212.637.737-.712.524-.587.748-.924.686-.337-.062-1.86-.387-2.21.462-.349.849-1.622 1.523-.96 2.346.661.824.511 1.423 1.46 1.548.948.125 1.435-.3 1.672.137.237.437.05.487.063 1.148.006.328.18.946.355 1.487a7.314 7.314 0 0 1-8.214 1.636.638.638 0 0 0 .034-.216z"/>
            <circle cx="8" cy="8" r="7.5" stroke="#FFF"/>
        </g>
    </g>
</svg>
