<svg xmlns="http://www.w3.org/2000/svg" width="40" height="36" viewBox="0 0 40 36">
    <g fill="none" fill-rule="nonzero">
        <path fill="#CAC9C2" d="M12.743 29.95L5.722 17.79l7.021-12.162h14.044l7.021 12.162-7.022 12.161H12.744"/>
        <path fill="#FFF" d="M20 23.34a5.48 5.48 0 0 1-5.474-5.473A5.48 5.48 0 0 1 20 12.394a5.48 5.48 0 0 1 5.473 5.473A5.48 5.48 0 0 1 20 23.34"/>
        <path fill="#5072AA" d="M31.01 1.55C30.58.803 29.523.193 28.663.193H11.359c-.86 0-1.916.61-2.347 1.355l-5.056 8.758c-.04.566.064 1.157.314 1.588l3.422 5.852 6.11-10.555h19.31c.458 0 .969.173 1.413.446L31.01 1.549"/>
        <path fill="#4D6796" d="M4.176 9.924l-.221.383c-.04.566.064 1.157.313 1.588l3.423 5.852 1.82-3.145-5.335-4.678"/>
        <path fill="#FFF" d="M11.805 4.693a1.057 1.057 0 0 1 0-2.112 1.057 1.057 0 0 1 0 2.112zM29.11 3.637a.978.978 0 1 1-1.956.025.978.978 0 0 1 1.956-.025z"/>
        <path fill="#CC4232" d="M39.662 16.535l-5.137-8.898c-.444-.272-.955-.445-1.412-.445h-6.964l6.021 10.613-9.533 16.843c-.21.363-.568.694-.98.938h7.006c.86 0 1.917-.61 2.347-1.355l8.652-14.986c.43-.745.43-1.965 0-2.71"/>
        <path fill="#B23F33" d="M34.757 8.037l-.23-.4c-.444-.272-.955-.445-1.412-.445H26.15l1.812 3.195 6.794-2.35"/>
        <path fill="#FFF" d="M28.13 32.997a1.057 1.057 0 0 1 0-2.112 1.057 1.057 0 0 1 0 2.112m8.22-14.074a1.057 1.057 0 0 1 0-2.112 1.057 1.057 0 0 1 0 2.112"/>
        <g>
            <path fill="#ECB02A" d="M13.935 28.42L4.27 11.895c-.25-.432-.353-1.022-.314-1.588L.36 16.535c-.43.745-.43 1.965 0 2.71L9.012 34.23c.43.746 1.487 1.355 2.347 1.355h10.298c.412-.243.77-.574.98-.937l3.525-6.228H13.935"/>
            <path fill="#C79732" d="M21.071 35.585h.6c.411-.243.77-.574.98-.937l3.525-6.228h-3.754l-1.35 7.165"/>
            <path fill="#FFF" d="M11.805 32.997a1.057 1.057 0 0 1 0-2.112 1.057 1.057 0 0 1 0 2.112M3.573 18.923a1.057 1.057 0 0 1 0-2.112 1.057 1.057 0 0 1 0 2.112"/>
        </g>
    </g>
</svg>
