<svg xmlns="http://www.w3.org/2000/svg" xmlns:xlink="http://www.w3.org/1999/xlink" width="56" height="56" viewBox="0 0 56 56">
    <defs>
        <rect id="b" width="48" height="48" rx="6"/>
        <filter id="a" width="129.2%" height="129.2%" x="-14.6%" y="-10.4%" filterUnits="objectBoundingBox">
            <feOffset dy="2" in="SourceAlpha" result="shadowOffsetOuter1"/>
            <feGaussianBlur in="shadowOffsetOuter1" result="shadowBlurOuter1" stdDeviation="2"/>
            <feColorMatrix in="shadowBlurOuter1" values="0 0 0 0 0 0 0 0 0 0 0 0 0 0 0 0 0 0 0.2 0"/>
        </filter>
    </defs>
    <g fill="none" fill-rule="evenodd">
        <g transform="translate(4 2)">
            <use fill="#000" filter="url(#a)" xlink:href="#b"/>
            <use fill="#FFF" xlink:href="#b"/>
        </g>
        <g fill-rule="nonzero">
            <path fill="#CAC9C2" d="M20.743 37.95L13.722 25.79l7.021-12.162h14.044l7.021 12.162-7.022 12.161H20.744"/>
            <path fill="#FFF" d="M28 31.34a5.48 5.48 0 0 1-5.474-5.473A5.48 5.48 0 0 1 28 20.394a5.48 5.48 0 0 1 5.473 5.473A5.48 5.48 0 0 1 28 31.34"/>
            <path fill="#5072AA" d="M39.01 9.55c-.43-.746-1.487-1.356-2.347-1.356H19.359c-.86 0-1.917.61-2.347 1.355l-5.056 8.758c-.04.566.064 1.157.314 1.588l3.422 5.852 6.11-10.555h19.31c.458 0 .969.173 1.413.446L39.01 9.549"/>
            <path fill="#4D6796" d="M12.176 17.924l-.221.383c-.04.566.064 1.157.313 1.588l3.423 5.852 1.82-3.145-5.335-4.678"/>
            <path fill="#FFF" d="M19.805 12.693a1.057 1.057 0 0 1 0-2.112 1.057 1.057 0 0 1 0 2.112zm17.304-1.056a.978.978 0 1 1-1.956.025.978.978 0 0 1 1.956-.025z"/>
            <path fill="#CC4232" d="M47.662 24.535l-5.137-8.898c-.444-.272-.955-.445-1.412-.445h-6.964l6.021 10.613-9.533 16.843c-.21.363-.568.694-.98.938h7.006c.86 0 1.917-.61 2.347-1.355l8.652-14.986c.43-.745.43-1.965 0-2.71"/>
            <path fill="#B23F33" d="M42.757 16.037l-.23-.4c-.444-.272-.955-.445-1.412-.445H34.15l1.812 3.195 6.794-2.35"/>
            <path fill="#FFF" d="M36.13 40.997a1.057 1.057 0 0 1 0-2.112 1.057 1.057 0 0 1 0 2.112m8.22-14.074a1.057 1.057 0 0 1 0-2.112 1.057 1.057 0 0 1 0 2.112"/>
            <g>
                <path fill="#ECB02A" d="M21.935 36.42L12.27 19.895c-.25-.432-.353-1.022-.314-1.588L8.36 24.535c-.43.745-.43 1.965 0 2.71l8.652 14.985c.43.746 1.487 1.355 2.347 1.355h10.298c.412-.243.77-.574.98-.937l3.525-6.228H21.935"/>
                <path fill="#C79732" d="M29.071 43.585h.6c.411-.243.77-.574.98-.937l3.525-6.228h-3.754l-1.35 7.165"/>
                <path fill="#FFF" d="M19.805 40.997a1.057 1.057 0 0 1 0-2.112 1.057 1.057 0 0 1 0 2.112m-8.232-14.074a1.057 1.057 0 0 1 0-2.112 1.057 1.057 0 0 1 0 2.112"/>
            </g>
        </g>
    </g>
</svg>
