<svg xmlns="http://www.w3.org/2000/svg" xmlns:xlink="http://www.w3.org/1999/xlink" width="72" height="72" viewBox="0 0 72 72">
    <defs>
        <path id="a" d="M6 0h52a6 6 0 0 1 6 6v52a6 6 0 0 1-6 6H6a6 6 0 0 1-6-6V6a6 6 0 0 1 6-6z"/>
        <filter id="b" width="121.9%" height="121.9%" x="-10.9%" y="-7.8%" filterUnits="objectBoundingBox">
            <feOffset dy="2" in="SourceAlpha" result="shadowOffsetOuter1"/>
            <feGaussianBlur in="shadowOffsetOuter1" result="shadowBlurOuter1" stdDeviation="2"/>
            <feColorMatrix in="shadowBlurOuter1" values="0 0 0 0 0 0 0 0 0 0 0 0 0 0 0 0 0 0 0.2 0"/>
        </filter>
    </defs>
    <g fill="none" fill-rule="evenodd" transform="translate(4 2)">
        <mask id="c" fill="#fff">
            <use xlink:href="#a"/>
        </mask>
        <use fill="#000" filter="url(#b)" xlink:href="#a"/>
        <use fill="#FFF" xlink:href="#a"/>
        <g fill-rule="nonzero" mask="url(#c)">
            <path fill="#F1511B" d="M31 31H16V16h15z"/>
            <path fill="#80CC28" d="M48 31H33V16h15z"/>
            <path fill="#00ADEF" d="M31 48H16V33h15z"/>
            <path fill="#FBBC09" d="M48 48H33V33h15z"/>
        </g>
    </g>
</svg>
