<svg xmlns="http://www.w3.org/2000/svg" xmlns:xlink="http://www.w3.org/1999/xlink" width="56" height="56" viewBox="0 0 56 56">
    <defs>
        <rect id="b" width="48" height="48" rx="6"/>
        <filter id="a" width="129.2%" height="129.2%" x="-14.6%" y="-10.4%" filterUnits="objectBoundingBox">
            <feOffset dy="2" in="SourceAlpha" result="shadowOffsetOuter1"/>
            <feGaussianBlur in="shadowOffsetOuter1" result="shadowBlurOuter1" stdDeviation="2"/>
            <feColorMatrix in="shadowBlurOuter1" values="0 0 0 0 0 0 0 0 0 0 0 0 0 0 0 0 0 0 0.2 0"/>
        </filter>
    </defs>
    <g fill="none" fill-rule="evenodd">
        <g transform="translate(4 2)">
            <use fill="#000" filter="url(#a)" xlink:href="#b"/>
            <use fill="#FFF" xlink:href="#b"/>
        </g>
        <g fill-rule="nonzero">
            <path fill="#8DC643" d="M29.698 8v11.975L35.685 9.61A17.935 17.935 0 0 0 29.698 8zm-12.1 3.221a18.191 18.191 0 0 0-4.377 4.377l10.365 5.988-5.988-10.365zm20.895 0l-5.946 10.365 10.365-5.988a18.362 18.362 0 0 0-4.419-4.377zM23.586 30.506L13.22 36.493c1.199 1.698 2.68 3.219 4.377 4.419l5.988-10.406zm8.92 0l5.987 10.406c1.701-1.2 3.219-2.72 4.419-4.419l-10.406-5.987zm-6.07 1.651l-5.988 10.365a18.055 18.055 0 0 0 5.987 1.61V32.158z"/>
            <path fill="#118745" d="M26.435 8a17.93 17.93 0 0 0-5.987 1.61l5.987 10.365V8zM11.61 18.448A18.1 18.1 0 0 0 10 24.435h11.975L11.61 18.448zm32.912 0l-10.365 5.987h11.976a18.131 18.131 0 0 0-1.61-5.987zM10 27.698a18.12 18.12 0 0 0 1.61 5.987l10.365-5.987H10zm24.157 0l10.365 5.987a17.993 17.993 0 0 0 1.61-5.987H34.158zm-4.46 4.46v11.975a18.015 18.015 0 0 0 5.988-1.61l-5.987-10.366z"/>
        </g>
    </g>
</svg>
