<svg xmlns="http://www.w3.org/2000/svg" xmlns:xlink="http://www.w3.org/1999/xlink" width="40" height="40" viewBox="0 0 40 40">
    <defs>
        <path id="a" d="M34.81 32.216l-1.729-1.513c-.108-.217-.108-.433 0-.54 1.838-2.487 3.135-5.622 3.351-8.866a.233.233 0 0 0-.216-.216h-3.135a.233.233 0 0 0-.216.216c-.649 6.703-6.27 12-13.19 12-2.918 0-5.62-.865-7.783-2.486-.108-.216-.216-.433 0-.649l1.622-1.189c.216-.108.432-.108.54 0a9.992 9.992 0 0 0 4.324 1.622.233.233 0 0 0 .217-.217v-3.351a.233.233 0 0 0-.217-.216c-3.351-.757-5.73-3.892-5.189-7.568.433-2.81 2.703-5.08 5.514-5.513a6.897 6.897 0 0 1 4.216.756c.108.109.108.217 0 .325l-1.838 1.838c-.108.108-.324.108-.54.108a3.333 3.333 0 0 0-2.055 0c-1.189.324-2.162 1.405-2.486 2.594-.757 2.703 1.73 5.19 4.54 4.54a3.81 3.81 0 0 0 2.595-2.377c.216-.65.216-1.298.108-1.946-.108-.217 0-.433.108-.541l1.838-1.838c.108-.108.216-.108.325 0 .54.865.756 1.946.756 3.027 0 3.027-1.946 5.622-4.756 6.379 0 0-.109.108-.109.216v3.351c0 .108.217.216.325.216 4.756-.973 8.324-5.08 8.324-10.162 0-5.946-4.973-10.702-10.919-10.378-4.973.216-9.19 4.216-9.73 9.189-.324 2.378.325 4.757 1.514 6.595a.329.329 0 0 1 0 .432l-1.514 1.514c-.216.216-.54.216-.648 0-1.622-2.487-2.487-5.406-2.27-8.541.432-6.486 5.621-11.676 12.108-12.324 7.135-.54 13.189 4.54 14.27 11.243 0 .108.108.216.216.216h3.243a.233.233 0 0 0 .217-.216c-.325-3.135-1.622-5.946-3.46-8.324-.108-.217-.108-.433 0-.54l1.514-1.514c.108-.217.432-.217.54 0 2.81 3.35 4.433 7.675 4.433 12.432 0 4.649-1.622 8.865-4.217 12.216-.108.108-.324.216-.54 0zM19.785 2.92c-8.54 0-15.568 6.27-16.649 14.27-.108.216-.216.325-.432.325H.54c-.325 0-.433-.217-.433-.433C1.405 7.676 9.73 0 19.784 0c4.54 0 8.757 1.73 12.108 4.324.108.108.216.325 0 .54l-1.514 1.514a.329.329 0 0 1-.432 0 16.713 16.713 0 0 0-10.162-3.46zm10.919 30.378l1.513 1.514c.216.108.216.432 0 .54-3.351 2.703-7.675 4.325-12.432 4.325C9.405 39.676.973 31.784 0 21.622c0-.217.216-.433.216-.433h2.162c.217 0 .433.108.433.325.973 8.648 8.108 15.243 16.865 15.243 4 0 7.567-1.19 10.486-3.46.216-.108.433-.108.54 0z"/>
    </defs>
    <g fill="none" fill-rule="evenodd">
        <mask id="b" fill="#fff">
            <use xlink:href="#a"/>
        </mask>
        <use fill="#6A6A6A" fill-rule="nonzero" xlink:href="#a"/>
        <g fill="#FF3C6A" mask="url(#b)">
            <path d="M-4-4h48v47H-4z"/>
        </g>
    </g>
</svg>
