<svg xmlns="http://www.w3.org/2000/svg" xmlns:xlink="http://www.w3.org/1999/xlink" width="56" height="56" viewBox="0 0 56 56">
    <defs>
        <rect id="b" width="48" height="48" rx="6"/>
        <filter id="a" width="129.2%" height="129.2%" x="-14.6%" y="-10.4%" filterUnits="objectBoundingBox">
            <feOffset dy="2" in="SourceAlpha" result="shadowOffsetOuter1"/>
            <feGaussianBlur in="shadowOffsetOuter1" result="shadowBlurOuter1" stdDeviation="2"/>
            <feColorMatrix in="shadowBlurOuter1" values="0 0 0 0 0 0 0 0 0 0 0 0 0 0 0 0 0 0 0.2 0"/>
        </filter>
    </defs>
    <g fill="none" fill-rule="evenodd">
        <g transform="translate(4 2)">
            <use fill="#000" filter="url(#a)" xlink:href="#b"/>
            <use fill="#FFF" xlink:href="#b"/>
        </g>
        <path fill="#252F3E" d="M19.208 22.733c0 .49.053.886.145 1.177.106.291.239.609.424.952a.575.575 0 0 1 .092.305c0 .132-.079.264-.25.396l-.834.556a.635.635 0 0 1-.344.12c-.132 0-.265-.067-.397-.186a4.092 4.092 0 0 1-.476-.622 10.24 10.24 0 0 1-.41-.78c-1.032 1.217-2.328 1.825-3.89 1.825-1.11 0-1.997-.317-2.645-.952-.648-.635-.978-1.482-.978-2.54 0-1.124.396-2.037 1.203-2.725.807-.688 1.879-1.031 3.24-1.031.45 0 .914.04 1.403.105.49.066.992.172 1.521.291v-.965c0-1.006-.211-1.707-.621-2.117-.424-.41-1.138-.608-2.157-.608-.463 0-.939.053-1.428.172-.49.119-.966.264-1.429.45-.211.092-.37.145-.463.172a.811.811 0 0 1-.211.04c-.185 0-.278-.133-.278-.41v-.649c0-.212.026-.37.093-.463.066-.093.185-.185.37-.278a7.613 7.613 0 0 1 1.667-.595 8.02 8.02 0 0 1 2.063-.251c1.574 0 2.725.357 3.466 1.071.727.714 1.098 1.8 1.098 3.254v4.286h.026zm-5.37 2.01c.436 0 .886-.079 1.362-.238.476-.158.9-.45 1.257-.846.211-.252.37-.53.45-.847.079-.317.132-.7.132-1.15v-.556a11.046 11.046 0 0 0-1.217-.225 9.967 9.967 0 0 0-1.244-.08c-.886 0-1.534.173-1.97.53-.437.357-.649.86-.649 1.52 0 .623.16 1.086.49 1.403.317.33.78.49 1.389.49zm10.621 1.429c-.238 0-.397-.04-.502-.132-.106-.08-.199-.265-.278-.516L20.57 15.299c-.08-.265-.119-.437-.119-.53 0-.21.106-.33.318-.33h1.296c.251 0 .423.04.516.132.106.08.185.265.265.516l2.222 8.757 2.063-8.757c.066-.264.146-.436.252-.516.105-.079.29-.132.529-.132h1.058c.251 0 .423.04.529.132.106.08.198.265.251.516l2.09 8.863 2.289-8.863c.079-.264.172-.436.264-.516.106-.079.278-.132.516-.132h1.23c.212 0 .33.106.33.33 0 .067-.012.133-.026.212-.013.08-.04.186-.092.331l-3.188 10.225c-.08.265-.172.437-.278.516-.106.08-.278.132-.502.132h-1.138c-.251 0-.423-.04-.53-.132-.105-.093-.198-.265-.25-.53l-2.05-8.53-2.038 8.518c-.066.264-.145.436-.251.529-.106.092-.291.132-.53.132H24.46zm16.998.357c-.688 0-1.376-.08-2.037-.238-.662-.159-1.178-.33-1.522-.53-.211-.118-.357-.25-.41-.37a.934.934 0 0 1-.079-.37v-.674c0-.278.106-.41.304-.41.08 0 .159.013.238.04.08.026.199.079.331.131.45.199.94.358 1.455.463.53.106 1.045.16 1.574.16.834 0 1.482-.146 1.931-.437.45-.291.688-.715.688-1.257 0-.37-.119-.675-.357-.926s-.688-.476-1.336-.688l-1.918-.595c-.966-.304-1.68-.754-2.116-1.35-.437-.581-.662-1.23-.662-1.917 0-.556.12-1.045.357-1.468a3.4 3.4 0 0 1 .953-1.085c.397-.304.846-.53 1.376-.688a5.765 5.765 0 0 1 1.666-.225c.291 0 .595.013.886.053.305.04.582.093.86.146.265.066.516.132.754.211.238.08.423.159.556.238.185.106.317.212.397.331.079.106.119.251.119.437v.621c0 .278-.106.424-.305.424-.105 0-.277-.053-.502-.16-.754-.343-1.6-.515-2.54-.515-.754 0-1.35.119-1.76.37-.41.252-.62.635-.62 1.178 0 .37.131.687.396.939.264.251.754.502 1.455.727l1.878.595c.953.305 1.64.728 2.05 1.27.41.543.609 1.164.609 1.852a3.4 3.4 0 0 1-.344 1.535c-.238.45-.555.846-.966 1.164-.41.33-.899.568-1.468.74a6.29 6.29 0 0 1-1.891.278z"/>
        <path fill="#F90" d="M43.957 32.958c-4.352 3.214-10.675 4.92-16.111 4.92-7.62 0-14.485-2.817-19.67-7.5-.41-.37-.04-.873.45-.582 5.608 3.254 12.526 5.225 19.683 5.225 4.828 0 10.132-1.005 15.013-3.069.727-.33 1.349.477.635 1.006zm1.812-2.064c-.556-.714-3.677-.344-5.093-.172-.423.053-.49-.317-.106-.595 2.487-1.746 6.574-1.243 7.05-.661.477.595-.132 4.682-2.46 6.64-.357.304-.7.145-.542-.252.529-1.309 1.706-4.259 1.15-4.96z"/>
    </g>
</svg>
