<svg xmlns="http://www.w3.org/2000/svg" width="24" height="24" viewBox="0 0 24 24">
    <g fill="none" fill-rule="evenodd">
        <rect width="24" height="24" fill="#33CAD4" rx="12"/>
        <path fill="#FFF" d="M10.656 14.688l4.4-4.4-.928-.944-3.472 3.44-1.376-1.376-.928.928 2.304 2.352zm6.256-4.656a3.261 3.261 0 0 1 1.552.52c.47.304.843.701 1.12 1.192.277.49.416 1.024.416 1.6 0 .608-.15 1.168-.448 1.68a3.324 3.324 0 0 1-1.216 1.216 3.275 3.275 0 0 1-1.68.448H8a3.918 3.918 0 0 1-2.008-.536 3.972 3.972 0 0 1-1.456-1.456A3.918 3.918 0 0 1 4 12.688c0-.672.157-1.299.472-1.88A3.983 3.983 0 0 1 5.76 9.384a3.975 3.975 0 0 1 1.808-.664 5.02 5.02 0 0 1 1.808-1.968A4.846 4.846 0 0 1 12 6c.8 0 1.547.176 2.24.528a4.923 4.923 0 0 1 1.728 1.432c.47.613.784 1.304.944 2.072z"/>
    </g>
</svg>
