<svg xmlns="http://www.w3.org/2000/svg" width="32" height="32" viewBox="0 0 32 32">
    <g fill="none" fill-rule="evenodd">
        <path fill="#D8D8D8" fill-opacity="0" d="M0 0h32v32H0z"/>
        <path fill="#CED2E0" d="M18.643 14.107a3.755 3.755 0 0 0-3.75-3.75 3.755 3.755 0 0 0-3.75 3.75 3.755 3.755 0 0 0 3.75 3.75 3.755 3.755 0 0 0 3.75-3.75zm4.286 6.964c0 .586-.486 1.072-1.072 1.072a1.05 1.05 0 0 1-.753-.318l-2.871-2.863A5.89 5.89 0 0 1 9 14.107a5.89 5.89 0 0 1 5.893-5.893 5.89 5.89 0 0 1 4.855 9.233l2.87 2.871c.193.193.31.469.31.753z"/>
    </g>
</svg>
